<?xml version="1.0" encoding="UTF-8" standalone="no"?>
<!DOCTYPE svg PUBLIC "-//W3C//DTD SVG 1.1//EN" "http://www.w3.org/Graphics/SVG/1.1/DTD/svg11.dtd">
<svg width="100%" height="100%" viewBox="0 0 512 512" version="1.1" xmlns="http://www.w3.org/2000/svg" style="fill-rule:evenodd;clip-rule:evenodd;stroke-linejoin:round;stroke-miterlimit:2;">
    <g transform="matrix(1.03278,0,0,1.03278,-14.5724,-12.5172)">
        <g transform="matrix(1.02793,0,0,1.02793,-7.28017,-7.29648)">
            <path d="M265.5,39.524C280.553,39.788 286.283,40.358 300.5,43.006C309.85,44.748 317.95,46.434 318.5,46.754C319.05,47.074 323.325,48.427 328,49.76C332.675,51.093 336.95,52.534 337.5,52.962C338.05,53.389 340.3,54.305 342.5,54.997C344.7,55.689 352.35,59.149 359.5,62.687C366.65,66.224 376.325,71.666 381,74.78C385.675,77.894 393.756,83.83 398.957,87.971C404.158,92.112 412.258,99.333 416.957,104.018C421.656,108.703 427.3,114.778 429.5,117.518C431.7,120.258 433.778,122.725 434.118,123C434.458,123.275 436.161,125.525 437.901,128C439.642,130.475 443.304,135.875 446.041,140C448.777,144.125 452.475,150.411 454.258,153.969C456.041,157.528 458.063,161.015 458.75,161.719C459.438,162.424 460.523,164.688 461.163,166.75C461.803,168.813 463.337,172.525 464.573,175C465.808,177.475 467.353,181.525 468.007,184C468.661,186.475 469.567,188.95 470.022,189.5C470.477,190.05 472.03,195 473.475,200.5C474.919,206 476.714,213.425 477.464,217C478.214,220.575 479.542,230.475 480.416,239C481.289,247.525 482.006,257.2 482.008,260.5C482.011,263.8 481.304,273.25 480.438,281.5C479.572,289.75 478.262,299.65 477.526,303.5C476.791,307.35 474.984,315 473.511,320.5C472.038,326 470.502,330.95 470.097,331.5C469.692,332.05 468.745,334.525 467.992,337C467.24,339.475 465.134,344.763 463.312,348.75C461.491,352.738 460,356.225 460,356.5C460,356.775 457.447,361.613 454.328,367.25C451.208,372.888 446.829,380.2 444.597,383.5C442.366,386.8 440.183,389.95 439.747,390.5C439.311,391.05 436.68,394.425 433.901,398C431.122,401.575 424.241,409.225 418.611,415C412.98,420.775 404.127,428.877 398.937,433.004C393.747,437.131 387.025,442.16 384,444.18C380.975,446.2 377.25,448.449 375.721,449.176C374.193,449.904 372.967,450.725 372.997,451C373.027,451.275 370.677,452.623 367.776,453.997C364.874,455.37 361.938,457.057 361.25,457.747C360.563,458.436 359.55,459 359,459C358.45,459 355.413,460.274 352.25,461.831C349.087,463.388 344.025,465.473 341,466.463C337.975,467.454 335.05,468.618 334.5,469.049C333.95,469.48 329,471.023 323.5,472.477C318,473.931 311.7,475.576 309.5,476.132C307.3,476.689 300.775,477.787 295,478.574C289.225,479.36 279.775,480.504 274,481.117C268.225,481.729 259.45,481.954 254.5,481.616C249.55,481.279 238.75,480.093 230.5,478.98C222.25,477.867 213.475,476.324 211,475.551C208.525,474.779 202.675,473.176 198,471.988C193.325,470.801 189.05,469.478 188.5,469.047C187.95,468.617 185.025,467.456 182,466.467C178.975,465.479 174.25,463.605 171.5,462.303C168.75,461 162.9,458.071 158.5,455.793C154.1,453.514 150.275,451.392 150,451.075C149.725,450.759 147.475,449.409 145,448.075C142.525,446.741 140.275,445.391 140,445.075C139.725,444.759 136.575,442.495 133,440.045C129.425,437.595 122.753,432.42 118.174,428.545C113.595,424.67 105.838,417.225 100.937,412C96.036,406.775 89.433,399.017 86.263,394.759C83.093,390.502 79.6,385.804 78.5,384.319C77.4,382.834 75.291,379.568 73.813,377.06C72.335,374.552 69.297,369.238 67.063,365.25C64.828,361.263 62.987,357.663 62.972,357.25C62.957,356.837 61.675,354.025 60.124,351C58.573,347.975 56.727,343.7 56.021,341.5C55.316,339.3 54.392,337.05 53.967,336.5C53.542,335.95 51.97,331.225 50.473,326C48.976,320.775 46.962,312.675 45.996,308C45.031,303.325 43.429,295 42.436,289.5C41.11,282.154 40.631,274.457 40.631,260.5C40.631,246.478 41.107,238.88 42.447,231.5C43.446,226 45.066,217.45 46.047,212.5C47.027,207.55 48.997,199.675 50.425,195C51.852,190.325 53.638,185.15 54.392,183.5C55.147,181.85 56.336,178.7 57.035,176.5C57.734,174.3 61.163,166.988 64.653,160.25C68.144,153.512 73.547,144.063 76.661,139.25C79.775,134.438 83.487,129.063 84.911,127.306C86.335,125.55 88.625,122.662 90,120.888C91.375,119.115 94.975,114.963 98,111.661C101.025,108.359 104.211,104.947 105.079,104.079C105.947,103.211 109.364,100.025 112.671,97C115.979,93.975 119.768,90.601 121.092,89.503C122.417,88.404 126.425,85.381 130,82.785C133.575,80.189 137.625,77.263 139,76.283C140.375,75.302 144.425,72.79 148,70.7C151.575,68.61 155.175,66.463 156,65.93C156.825,65.396 159.075,64.258 161,63.401C162.925,62.543 167.2,60.535 170.5,58.938C173.8,57.341 176.838,56.027 177.25,56.017C177.663,56.008 179.913,55.105 182.25,54.011C184.588,52.918 190.325,50.861 195,49.441C199.675,48.021 207.325,46.062 212,45.088C216.675,44.114 224.55,42.568 229.5,41.652C234.45,40.737 240.525,39.812 243,39.598C245.475,39.383 255.6,39.35 265.5,39.524Z" style="fill:none;fill-rule:nonzero;stroke:rgb(204,204,204);stroke-width:18px;"/>
        </g>
        <g transform="matrix(0.971023,0,0,0.971023,7.59159,7.53392)">
            <path d="M260.5,81.128C251.7,81.2 241.125,81.651 237,82.13C232.875,82.609 224.325,84.327 218,85.947C211.675,87.568 202.675,90.357 198,92.144L189.5,95.393L193,96.255C194.925,96.73 201.45,97.241 207.5,97.392C213.55,97.542 220.3,98.256 222.5,98.978C224.7,99.699 226.831,100.787 227.235,101.395C227.639,102.003 227.976,103.738 227.985,105.25C227.993,106.763 227.379,109.238 226.62,110.75C225.861,112.263 223.273,115.269 220.87,117.432C218.466,119.595 215.15,121.908 213.5,122.572C211.85,123.236 206.675,124.27 202,124.871C197.325,125.471 191.7,126.6 189.5,127.379C187.3,128.158 183.025,129.962 180,131.388C176.975,132.814 173.375,133.996 172,134.016C170.625,134.035 168.491,133.027 167.257,131.776C166.023,130.524 164.733,127.925 164.391,126C163.942,123.478 164.359,121.312 165.884,118.25C167.048,115.912 167.993,113.213 167.985,112.25C167.976,111.287 167.551,109.825 167.041,109C166.271,107.757 164.687,108.483 157.806,113.231C153.238,116.382 146.575,121.612 143,124.853L136.5,130.744L138.344,137.122C139.358,140.63 140.403,145.525 140.666,148C141.047,151.593 140.726,152.954 139.072,154.75C137.932,155.988 136.213,157.007 135.25,157.017C134.288,157.026 132.038,156.576 130.25,156.017L127,155L120.25,159.502C116.537,161.979 112.488,164.004 111.25,164.002C109.692,164.001 108.171,165.306 106.302,168.25C104.818,170.588 101.724,176.325 99.426,181C97.128,185.675 94.083,192.425 92.658,196C91.233,199.575 88.746,207 87.132,212.5C85.518,218 83.895,224.525 83.525,227C83.156,229.475 82.65,232.175 82.401,233C82.08,234.065 83.623,235.142 87.724,236.715C90.943,237.95 97.042,241.764 101.5,245.33C107.358,250.015 111.106,254.099 115.5,260.583C119.51,266.501 122.827,270.22 125.5,271.797C127.7,273.094 131.96,275.583 134.966,277.328C137.973,279.073 141.497,282.075 142.798,284C144.624,286.702 145.024,288.298 144.555,291C144.221,292.925 142.422,296.525 140.557,299C138.692,301.475 135.891,306.846 134.333,310.936C131.789,317.614 130.99,318.695 126.5,321.534C123.75,323.273 120.375,325.365 119,326.183C117.625,327.001 114.588,330.895 112.25,334.835C109.912,338.776 106.537,343.347 104.75,344.992L101.5,347.985L104.418,353.242C106.023,356.134 109.346,361.425 111.802,365C114.258,368.575 117.874,373.525 119.838,376C121.801,378.475 127.029,384.262 131.454,388.861C135.879,393.459 142.65,399.808 146.5,402.97C150.35,406.132 157.325,411.213 162,414.261C166.675,417.309 173.65,421.442 177.5,423.445C181.35,425.448 187.2,428.236 190.5,429.64C193.8,431.044 201.225,433.743 207,435.639C212.775,437.534 224.025,440.185 232,441.53C242.947,443.377 250.237,443.979 261.75,443.988C270.138,443.995 279.138,443.59 281.75,443.089C284.363,442.587 289.875,441.66 294,441.027C298.125,440.394 306.225,438.497 312,436.81C317.775,435.124 326.55,432.037 331.5,429.95C336.45,427.864 344.325,424.037 349,421.447C353.675,418.856 360.2,414.921 363.5,412.701C366.8,410.481 372.875,405.878 377,402.472C381.125,399.066 388.724,391.829 393.888,386.389C399.051,380.95 404.226,375.097 405.388,373.382C406.549,371.667 409.476,367.392 411.892,363.882C414.307,360.372 418.668,353 421.582,347.5C424.497,342 428.192,334.125 429.794,330L432.708,322.5L430.354,317.75C429.059,315.138 427.716,311.087 427.368,308.75C426.915,305.698 427.338,302.739 428.868,298.25C430.041,294.813 430.976,290.763 430.946,289.25C430.916,287.738 430.128,284.559 429.196,282.186C428.263,279.814 425.025,274.744 422,270.919C418.438,266.415 415.795,263.974 414.5,263.988C413.4,264.001 410.813,264.459 408.75,265.006C406.688,265.553 403.352,267.463 401.337,269.25C399.323,271.038 396.857,274.3 395.859,276.5C394.861,278.7 394.034,281.738 394.022,283.25C394.01,284.763 393.1,286.9 392,288C390.9,289.1 389.438,289.753 388.75,289.452C388.063,289.151 386.375,287.443 385,285.657C383.625,283.871 380.475,276.824 378,269.997C374.318,259.842 372.682,256.701 369,252.727C366.525,250.055 363.6,247.635 362.5,247.35C361.4,247.065 359.375,247.099 358,247.426C356.625,247.753 353.7,250.253 351.5,252.982C348.826,256.299 345.013,259.316 340,262.083C335.875,264.359 331.698,266.96 330.717,267.861C329.351,269.117 328.942,271.018 328.964,276C328.984,280.541 328.447,283.404 327.183,285.5C326.187,287.15 321.127,291.684 315.937,295.577C310.746,299.469 305.627,303.969 304.559,305.577C303.06,307.835 302.492,310.946 302.059,319.251L301.5,330.002L295,336.316C291.425,339.788 286.275,346.2 283.557,350.565C280.838,354.929 277.382,360.075 275.877,362C274.372,363.925 270.746,366.8 267.82,368.39C264.651,370.111 260.849,371.324 258.418,371.39C255.407,371.471 253.375,370.779 250.668,368.75C248.522,367.141 245.99,363.822 244.566,360.75C243.228,357.863 241.424,352.575 240.559,349C239.693,345.425 238.706,338.45 238.364,333.5C237.85,326.049 238.108,323.209 239.863,317C241.029,312.875 241.987,308.038 241.991,306.25C241.996,304.463 241.058,298.613 239.907,293.25C238.756,287.888 236.739,281.475 235.424,279C234.11,276.525 231.789,273.873 230.267,273.107C228.639,272.287 222.973,271.516 216.5,271.233C210.112,270.955 204.347,270.176 202.75,269.377C201.238,268.62 198.903,266.538 197.562,264.75C196.221,262.963 194.111,259.25 192.873,256.5C191.07,252.493 190.611,249.614 190.561,242C190.524,236.17 191.05,230.955 191.923,228.5C192.88,225.81 197.009,220.733 204.526,213L215.705,201.5L216.476,194.5C216.9,190.65 217.754,186.685 218.374,185.688C218.993,184.692 222.088,182.33 225.25,180.438C229.187,178.084 231,176.369 231,175C231,173.9 229.836,170.637 228.413,167.75C226.99,164.863 225.977,161.39 226.163,160.032C226.366,158.546 227.892,156.646 230,155.254C231.925,153.984 234.063,152.957 234.75,152.972C235.438,152.987 238.363,154.804 241.25,157.008C244.137,159.212 247.512,161.012 248.75,161.008C249.988,161.004 251.678,159.988 252.508,158.75C253.337,157.512 254.012,155.262 254.008,153.75C254.003,152.238 254.604,149.538 255.341,147.75C256.079,145.963 259.116,142.598 262.091,140.274C265.066,137.95 270.2,134.923 273.5,133.548C277.634,131.825 281.366,131.047 285.5,131.047C289.725,131.047 293.275,131.809 297.5,133.621C300.8,135.037 306.875,137.56 311,139.227L318.5,142.259L331,141.639C337.875,141.297 352.163,139.889 362.75,138.509C373.337,137.129 383.8,136 386,136C388.2,136 390.018,135.663 390.041,135.25C390.064,134.838 387.701,132.157 384.791,129.293C381.881,126.43 376.8,121.982 373.5,119.41C370.2,116.838 364.125,112.528 360,109.831C355.875,107.134 348.225,102.731 343,100.047C337.775,97.362 329.675,93.763 325,92.05C320.325,90.336 311.325,87.614 305,86.001C298.675,84.387 289.675,82.601 285,82.032C280.325,81.463 269.3,81.056 260.5,81.128Z" style="fill:none;fill-rule:nonzero;stroke:rgb(204,204,204);stroke-width:9px;"/>
        </g>
        <g transform="matrix(0.971023,0,0,0.971023,7.59159,7.53392)">
            <path d="M248.5,190.034C247.95,190.049 246.713,190.497 245.75,191.03C244.788,191.564 243.994,192.788 243.986,193.75C243.979,194.784 248.331,198.98 254.617,204C260.471,208.675 266.214,213.047 267.38,213.715C268.546,214.383 271.75,214.965 274.5,215.008C277.25,215.052 281.3,215.79 283.5,216.649C285.7,217.508 289.075,218.413 291,218.66C293.106,218.93 295.016,218.59 295.795,217.805C296.507,217.087 297.069,215.488 297.045,214.25C297.016,212.787 296.388,212.003 295.25,212.01C294.288,212.015 291.25,211.364 288.5,210.564C285.75,209.763 281.363,207.509 278.75,205.554C275.81,203.354 272,201.597 268.75,200.943C265.737,200.336 262.009,198.685 260,197.069C258.075,195.52 254.925,193.298 253,192.13C251.075,190.963 249.05,190.019 248.5,190.034Z" style="fill:none;fill-rule:nonzero;stroke:rgb(204,204,204);stroke-width:9px;"/>
        </g>
        <g transform="matrix(0.971023,0,0,0.971023,7.59159,7.53392)">
            <path d="M314.5,332.029C315.6,331.995 317.07,332.537 317.767,333.233C318.463,333.93 319.026,336.188 319.017,338.25C319.008,340.313 318.161,343.688 317.136,345.75C316.111,347.813 313.861,350.738 312.136,352.25C310.411,353.763 308.438,354.989 307.75,354.975C307.063,354.961 305.698,354.173 304.717,353.225C303.737,352.276 302.949,350.263 302.967,348.75C302.985,347.238 303.624,344.538 304.386,342.75C305.148,340.962 307.285,337.833 309.136,335.796C310.986,333.759 313.4,332.064 314.5,332.029Z" style="fill:none;fill-rule:nonzero;stroke:rgb(204,204,204);stroke-width:9px;"/>
        </g>
    </g>
</svg>
