<?xml version="1.0" standalone="no"?>
<!DOCTYPE svg PUBLIC "-//W3C//DTD SVG 20010904//EN"
 "http://www.w3.org/TR/2001/REC-SVG-20010904/DTD/svg10.dtd">
<svg version="1.0" xmlns="http://www.w3.org/2000/svg"
 width="256.000000pt" height="256.000000pt" viewBox="0 0 256.000000 256.000000"
 preserveAspectRatio="xMidYMid meet">
<metadata>
Created by potrace 1.10, written by Peter Selinger 2001-2011
</metadata>
<g transform="translate(0.000000,256.000000) scale(0.100000,-0.100000)"
fill="#cccccc" stroke="#cccccc" stroke-width="50">
<path d="M1113 2530 c-81 -11 -195 -40 -212 -54 -8 -6 -16 -10 -18 -8 -1 1 -4
2 -5 1 -2 0 -11 -2 -21 -4 -19 -4 -209 -95 -217 -104 -3 -3 -17 -12 -31 -19
-14 -8 -38 -23 -52 -35 -14 -12 -38 -31 -54 -42 -30 -21 -164 -154 -198 -196
-51 -64 -106 -153 -148 -239 -49 -101 -80 -180 -70 -180 3 0 1 -6 -5 -12 -9
-12 -21 -54 -28 -103 -2 -11 -8 -51 -15 -89 -10 -64 -8 -298 4 -356 3 -14 8
-43 12 -65 7 -46 35 -145 43 -160 4 -5 7 -16 8 -23 5 -33 129 -264 145 -270 5
-2 9 -10 9 -18 0 -8 7 -17 15 -20 8 -4 15 -11 15 -16 0 -18 150 -175 203 -213
27 -19 58 -43 84 -65 7 -5 17 -10 23 -10 5 0 10 -4 10 -9 0 -5 10 -13 23 -17
12 -4 24 -10 27 -14 8 -12 110 -61 110 -53 0 5 4 3 8 -3 4 -6 27 -18 51 -28
l43 -17 -4 23 c-258 1206 -288 1361 -288 1477 0 101 17 186 49 249 55 107 174
189 323 221 l83 18 -100 14 c-55 7 -143 14 -197 14 l-96 0 14 26 c10 19 29 32
66 44 29 10 57 20 62 23 8 5 -39 20 -114 37 -25 6 -24 6 3 -10 15 -9 27 -17
27 -19 0 -2 -16 -20 -35 -39 -19 -19 -35 -42 -35 -51 0 -20 36 -39 61 -31 24
8 189 -4 189 -14 0 -4 -30 -20 -67 -36 -80 -34 -173 -121 -203 -188 -68 -154
-68 -271 4 -625 77 -376 129 -627 176 -842 44 -204 46 -220 28 -220 -21 0
-144 66 -222 117 -86 58 -235 204 -299 294 -355 501 -284 1188 163 1603 259
240 622 358 969 316 462 -57 848 -364 1006 -800 158 -440 46 -938 -287 -1269
-100 -100 -322 -254 -340 -236 -2 2 -3 56 -2 119 3 114 -14 225 -38 253 -25
31 -77 11 -211 -79 -57 -39 -57 -39 -100 -25 -49 17 -63 41 -103 174 -27 92
-46 283 -27 283 5 0 47 -13 94 -29 141 -47 267 -74 354 -74 177 0 385 88 385
163 0 62 -43 67 -225 25 -254 -59 -465 -29 -465 66 0 49 32 61 126 48 99 -13
151 -2 364 75 242 89 353 158 324 203 -45 71 -141 81 -303 29 -118 -37 -227
-63 -235 -55 -2 2 -6 47 -9 99 -8 155 -78 340 -182 478 -50 67 -113 111 -190
132 -25 7 -69 33 -102 61 -138 118 -381 184 -545 150 -68 -15 -91 -35 -26 -24
24 5 88 8 143 7 158 -1 317 -58 415 -150 33 -31 66 -50 111 -64 35 -11 81 -33
102 -48 79 -58 180 -226 229 -382 18 -60 23 -98 23 -185 l0 -111 125 33 c69
19 152 42 184 53 71 24 153 26 201 5 75 -31 55 -70 -68 -129 -104 -50 -320
-130 -415 -154 -52 -13 -78 -13 -145 -5 -96 13 -123 6 -141 -39 -36 -84 60
-141 239 -142 64 0 138 9 257 34 160 33 169 33 185 17 28 -28 0 -66 -76 -104
-146 -73 -299 -86 -476 -40 -109 28 -245 74 -259 88 -21 20 -26 6 -26 -76 0
-102 19 -201 63 -327 l32 -93 43 -3 c28 -2 42 -8 42 -18 0 -20 2 -19 73 31 73
51 172 105 193 105 25 0 44 -96 44 -226 0 -142 -8 -174 -44 -174 -29 0 -177
45 -218 66 -16 8 -28 11 -28 7 1 -5 20 -44 43 -88 32 -62 47 -80 62 -78 38 3
80 14 94 26 8 7 15 11 15 9 2 -8 165 58 172 69 2 4 23 17 47 28 23 11 54 31
69 43 14 13 36 30 49 38 41 27 207 191 236 233 15 23 31 44 36 45 4 2 7 10 7
18 0 8 5 14 10 14 6 0 10 7 10 15 0 8 4 15 9 15 5 0 16 17 25 38 9 20 23 48
31 62 22 39 56 118 60 137 2 10 4 19 5 21 2 1 3 5 4 10 1 4 4 12 7 17 4 6 10
24 13 40 3 17 9 41 12 55 9 42 15 73 20 115 6 52 6 291 0 330 -3 17 -7 47 -10
67 -3 20 -11 56 -17 80 -7 24 -13 46 -15 51 -1 4 -3 9 -4 12 -1 3 -4 10 -5 15
-1 6 -3 11 -5 13 -1 1 -3 9 -5 18 -1 9 -9 32 -18 50 -8 19 -23 54 -33 78 -10
24 -23 49 -29 55 -5 6 -18 28 -29 48 -10 20 -27 46 -37 57 -11 11 -19 24 -19
28 0 5 -20 31 -45 58 -25 28 -45 53 -45 57 0 4 -35 38 -79 75 -106 92 -131
111 -163 125 -16 7 -28 16 -28 20 0 5 -6 8 -14 8 -8 0 -16 4 -18 9 -4 10 -128
74 -128 66 0 -3 -10 1 -22 9 -23 14 -132 51 -178 60 -14 3 -43 10 -65 16 -51
14 -332 20 -412 10z m493 -2348 c5 -5 28 -14 52 -21 23 -6 42 -15 42 -20 0 -9
-67 -31 -94 -31 -15 0 -56 53 -56 73 0 10 44 9 56 -1z"/>
<path d="M728 2123 c23 -2 59 -2 80 0 20 2 1 4 -43 4 -44 0 -61 -2 -37 -4z"/>
<path d="M1433 1794 c-31 -31 -26 -39 13 -19 37 19 75 19 119 1 41 -18 46 -6
9 23 -39 31 -107 29 -141 -5z"/>
<path d="M620 1753 c-17 -78 -6 -201 31 -383 16 -80 45 -219 64 -310 28 -140
76 -369 174 -835 17 -80 18 -91 4 -102 -13 -10 -12 -13 7 -23 12 -6 24 -10 26
-7 2 2 -36 197 -86 433 -209 988 -227 1092 -211 1209 12 86 7 97 -9 18z"/>
<path d="M815 1777 c-16 -8 -37 -23 -46 -33 -20 -23 -32 -71 -20 -78 5 -3 12
5 15 19 4 14 24 37 47 52 42 27 85 34 129 19 23 -8 24 -7 9 9 -22 23 -96 29
-134 12z"/>
<path d="M1499 1591 c-16 -16 -29 -39 -29 -51 0 -29 53 -80 83 -80 42 0 77 36
77 80 0 30 -6 43 -26 59 -37 29 -70 26 -105 -8z m51 -21 c0 -11 9 -25 20 -32
11 -7 20 -18 20 -25 0 -18 -48 -28 -65 -13 -18 15 -20 61 -3 78 18 18 28 15
28 -8z m57 4 c8 -21 -13 -42 -28 -27 -13 13 -5 43 11 43 6 0 13 -7 17 -16z"/>
<path d="M894 1570 c-55 -23 -71 -99 -30 -147 53 -61 156 -21 156 62 0 63 -69
110 -126 85z m38 -45 c-4 -20 25 -55 45 -55 21 0 15 -17 -13 -39 -33 -26 -35
-26 -68 4 -31 29 -34 67 -5 96 23 23 46 20 41 -6z m62 -1 c7 -19 -1 -34 -19
-34 -18 0 -28 17 -21 35 7 20 32 19 40 -1z"/>
<path d="M1678 1315 c-2 -3 -63 -11 -135 -19 -113 -11 -138 -17 -192 -46 -82
-44 -131 -98 -131 -146 0 -45 23 -94 58 -125 l26 -24 -17 25 c-49 70 -57 88
-57 121 0 30 8 43 48 81 74 70 124 88 274 104 73 8 136 18 142 24 7 7 7 10 0
10 -6 0 -13 -2 -16 -5z"/>
<path d="M983 498 c-5 -7 -10 -27 -12 -44 -4 -52 18 -309 30 -343 14 -41 27
-39 162 27 58 29 102 45 110 40 38 -24 178 2 202 38 8 13 11 24 5 24 -5 0 -10
-5 -10 -10 0 -17 -52 -31 -119 -32 -51 -1 -67 3 -77 17 -16 22 -19 137 -4 164
5 10 31 24 57 31 26 7 53 17 58 23 15 14 -65 -1 -90 -18 -17 -11 -28 -8 -85
20 -56 28 -187 75 -210 75 -4 0 -12 -6 -17 -12z m98 -27 c30 -10 80 -30 111
-45 31 -14 62 -26 69 -26 9 0 8 -4 -1 -15 -7 -9 -13 -49 -14 -102 l-1 -88 -99
-47 c-98 -47 -119 -50 -130 -21 -11 26 -26 193 -26 281 0 95 0 95 91 63z"/>
</g>
</svg>
