<?xml version="1.0" standalone="no"?>
<!DOCTYPE svg PUBLIC "-//W3C//DTD SVG 20010904//EN"
 "http://www.w3.org/TR/2001/REC-SVG-20010904/DTD/svg10.dtd">
<svg version="1.0" xmlns="http://www.w3.org/2000/svg"
 width="300.000000pt" height="300.000000pt" viewBox="0 0 300.000000 300.000000"
 preserveAspectRatio="xMidYMid meet">
<metadata>
Created by potrace 1.10, written by Peter Selinger 2001-2011
</metadata>
<g transform="translate(0.000000,300.000000) scale(0.100000,-0.100000)"
fill="#cccccc" stroke="#cccccc" stroke-width="50">
<path d="M1400 2970 c-649 -64 -1167 -526 -1312 -1171 -20 -90 -23 -131 -23
-304 0 -155 4 -219 18 -285 123 -577 547 -1019 1108 -1155 333 -80 699 -40
999 110 263 131 471 339 600 600 69 139 101 230 129 372 42 206 46 395 13 588
l-7 40 -693 3 -692 2 0 -290 0 -290 395 0 c217 0 395 -4 395 -8 0 -25 -37
-126 -67 -184 -87 -166 -252 -290 -462 -345 -134 -36 -357 -39 -476 -6 -309
84 -529 296 -622 600 -24 80 -27 102 -27 248 0 146 3 168 27 248 91 296 300
501 603 593 79 24 105 27 234 27 128 0 155 -3 233 -27 102 -30 204 -80 269
-129 l45 -35 218 218 217 217 -74 55 c-151 114 -265 176 -426 232 -189 66
-428 95 -622 76z m336 -39 c152 -22 294 -65 430 -131 97 -47 281 -167 289
-189 4 -10 -53 -74 -182 -203 l-187 -187 -36 21 c-145 89 -257 131 -388 149
-397 53 -762 -147 -944 -515 -18 -36 -36 -65 -40 -64 -10 4 -358 270 -375 287
-8 7 -16 11 -19 8 -3 -3 90 -78 206 -167 127 -98 207 -165 200 -170 -56 -35
-66 -416 -13 -527 9 -20 12 -38 7 -43 -5 -4 -110 -85 -233 -179 l-224 -171
-29 82 c-93 261 -103 319 -102 578 1 203 1 207 37 342 20 76 45 157 57 179 11
23 23 57 26 76 6 33 7 33 30 18 13 -8 24 -11 24 -5 0 5 -5 10 -10 10 -29 0 36
124 134 255 67 88 208 222 312 296 290 207 674 300 1030 250z m1159 -1205 c18
-18 35 -146 35 -269 0 -81 -28 -309 -44 -362 -1 -5 -10 -37 -20 -70 -22 -75
-74 -209 -99 -255 -27 -50 -60 -104 -66 -110 -4 -3 -13 -18 -21 -33 -8 -16
-25 -40 -37 -53 -13 -14 -23 -28 -23 -32 0 -4 -14 -20 -31 -37 -17 -16 -45
-47 -62 -67 -36 -44 -43 -45 -77 -18 -14 11 -109 86 -213 166 -169 132 -202
164 -163 164 23 0 132 108 174 173 47 72 89 167 98 224 11 68 17 67 -387 68
-315 0 -360 2 -374 16 -23 22 -35 446 -15 484 l13 25 649 0 c533 0 652 -2 663
-14z m-2169 -628 c55 -110 88 -155 189 -253 173 -171 378 -255 620 -255 174 0
308 27 436 90 35 17 67 26 77 22 16 -6 139 -95 175 -127 9 -8 62 -49 116 -90
128 -97 127 -96 93 -124 -147 -122 -341 -220 -532 -270 -291 -77 -620 -54
-905 62 -55 22 -126 55 -159 73 -102 55 -253 173 -344 269 -80 84 -201 251
-230 318 -14 33 -14 33 79 104 35 27 114 87 174 133 61 46 112 86 115 89 7 9
44 30 52 30 4 1 24 -32 44 -71z"/>
</g>
</svg>
