<?xml version="1.0" standalone="no"?>
<!DOCTYPE svg PUBLIC "-//W3C//DTD SVG 20010904//EN"
 "http://www.w3.org/TR/2001/REC-SVG-20010904/DTD/svg10.dtd">
<svg version="1.0" xmlns="http://www.w3.org/2000/svg"
 width="300.000000pt" height="300.000000pt" viewBox="0 0 300.000000 300.000000"
 preserveAspectRatio="xMidYMid meet">
<metadata>
Created by potrace 1.10, written by Peter Selinger 2001-2011
</metadata>
<g transform="translate(0.000000,300.000000) scale(0.100000,-0.100000)"
fill="#cccccc" stroke="#cccccc" stroke-width="50">
<path d="M1280 2946 c-352 -51 -640 -199 -877 -450 -181 -190 -311 -448 -361
-710 -24 -130 -24 -475 1 -601 107 -539 505 -963 1031 -1100 222 -57 452 -67
685 -30 136 22 194 44 205 78 9 25 0 49 -79 208 -50 99 -98 187 -108 196 -15
15 -28 15 -116 3 -126 -17 -300 -8 -404 19 -360 95 -642 400 -706 765 -18 96
-13 280 9 378 127 577 746 905 1298 687 232 -92 439 -293 533 -517 58 -139 72
-213 73 -372 0 -171 -20 -271 -83 -406 -54 -114 -99 -179 -197 -284 -46 -49
-84 -95 -84 -102 1 -7 74 -157 163 -333 122 -241 168 -323 187 -333 18 -9 88
-11 267 -10 211 3 244 5 259 20 22 21 11 57 -11 38 -8 -7 -12 -16 -10 -21 6
-9 -445 -12 -481 -3 -18 5 -64 69 -65 91 -1 5 -4 13 -9 18 -19 24 -180 345
-173 345 4 0 3 4 -3 8 -17 10 -84 151 -84 175 0 11 24 43 53 72 28 28 66 69
82 90 17 21 36 44 43 51 6 7 12 16 12 20 0 4 11 22 25 40 14 18 25 40 25 48 0
9 5 16 10 16 6 0 10 9 10 20 0 11 4 20 8 20 5 0 9 6 9 13 0 6 7 28 15 47 31
70 56 187 64 300 5 76 -1 141 -30 305 -2 11 -14 47 -27 80 -13 33 -24 62 -24
65 -3 16 -69 133 -99 174 -19 27 -32 54 -29 59 3 6 1 7 -5 3 -6 -3 -20 8 -33
25 -21 30 -21 30 -1 18 11 -7 18 -17 15 -23 -3 -5 -1 -6 6 -2 20 13 177 -128
278 -250 41 -50 43 -39 3 12 -77 98 -210 219 -324 295 -65 43 -124 79 -131 79
-7 0 -18 7 -25 15 -10 13 -9 15 11 16 15 0 18 3 9 6 -8 3 -58 26 -110 51 -52
26 -97 47 -100 47 -3 1 -34 11 -70 23 -196 66 -397 67 -610 4 -134 -41 -265
-118 -374 -220 -65 -61 -156 -162 -156 -173 0 -5 -4 -9 -9 -9 -6 0 -6 12 -2
28 11 38 72 156 82 160 5 2 9 8 9 14 0 5 11 24 25 42 14 18 25 36 25 39 0 8 9
19 92 111 35 38 72 76 82 85 10 9 27 24 38 34 10 9 22 17 26 17 5 0 19 11 31
24 12 13 39 32 59 42 20 11 42 26 49 34 7 8 13 11 13 5 0 -6 3 -6 8 0 12 18
129 75 205 101 78 27 215 55 285 59 23 1 45 5 48 8 6 6 221 -1 245 -8 10 -3
27 -8 40 -10 109 -21 238 -82 272 -127 24 -33 41 -37 32 -8 -9 30 2 25 64 -28
31 -27 67 -57 81 -68 82 -63 215 -217 289 -337 49 -79 134 -274 126 -288 -4
-5 -2 -9 3 -9 5 0 13 -12 16 -27 4 -16 11 -46 16 -68 5 -22 12 -51 15 -65 15
-64 20 -150 19 -325 -1 -246 -19 -331 -126 -590 -58 -139 -68 -146 -41 -26 4
16 2 22 -6 17 -6 -4 -11 -18 -11 -31 0 -13 -16 -61 -36 -106 -26 -58 -34 -88
-29 -108 7 -27 193 -382 218 -415 4 -6 16 -27 26 -45 17 -33 41 -53 41 -34 0
5 -58 120 -130 255 -71 136 -130 254 -130 263 0 9 16 42 37 73 91 143 159 315
193 489 24 125 30 407 10 528 -50 313 -181 568 -404 790 -61 61 -145 133 -186
160 -98 65 -260 147 -277 140 -9 -3 -11 0 -7 7 5 7 2 9 -9 5 -9 -3 -82 -1
-164 5 -124 9 -168 9 -270 -5 -281 -36 -524 -157 -728 -362 -114 -114 -182
-209 -248 -346 -43 -88 -117 -309 -117 -348 0 -10 -9 -44 -21 -77 -11 -33 -20
-84 -20 -116 0 -50 -5 -64 -32 -100 -99 -132 -321 -124 -413 14 -33 49 -52
117 -36 127 5 3 13 31 17 61 30 236 145 512 282 681 52 64 110 128 144 159 70
65 94 84 184 145 359 244 793 307 1294 189 57 -13 106 -22 109 -20 7 8 -186
64 -278 81 -118 22 -390 28 -510 11z m-1180 -1500 c0 4 8 1 18 -7 51 -42 87
-53 162 -52 96 1 110 2 110 13 0 4 11 11 25 14 14 4 35 16 47 28 20 20 22 20
35 3 7 -11 14 -33 15 -49 3 -64 4 -68 45 -236 3 -14 9 -27 12 -30 14 -11 31
-62 25 -73 -4 -7 -4 -9 1 -5 4 4 17 -12 29 -35 23 -48 88 -141 120 -173 12
-11 35 -36 51 -55 60 -67 166 -144 255 -185 98 -45 120 -54 130 -54 5 0 18 -4
28 -9 83 -42 313 -57 460 -31 84 15 77 21 142 -100 22 -41 46 -86 55 -100 34
-58 55 -116 55 -152 0 -35 -2 -38 -29 -38 -16 0 -31 -4 -33 -9 -1 -5 -21 -11
-43 -14 -22 -3 -54 -11 -70 -18 -20 -8 -101 -12 -250 -13 -222 -1 -271 5 -405
47 -40 13 -39 12 -103 30 -26 7 -44 16 -41 20 4 4 -4 7 -19 7 -14 0 -29 5 -32
10 -4 6 -12 10 -18 9 -21 -4 -64 19 -71 36 -4 12 -13 15 -27 12 -12 -3 -22 0
-26 9 -3 8 -10 14 -17 14 -6 0 -17 9 -24 20 -7 11 -18 17 -27 14 -8 -4 -15 -1
-15 5 0 6 -11 16 -25 21 -14 5 -25 15 -25 21 0 7 -3 10 -6 6 -6 -6 -32 13 -65
47 -11 11 -19 17 -19 13 0 -8 -35 26 -82 80 -14 17 -30 32 -35 34 -15 6 -128
152 -141 182 -6 15 -17 27 -23 27 -7 0 -9 9 -6 21 4 15 2 19 -8 15 -15 -5 -30
27 -21 43 3 5 0 11 -7 14 -6 3 -20 22 -31 43 -10 22 -22 47 -27 56 -5 10 -9
29 -9 43 0 14 -4 25 -9 25 -5 0 -12 19 -16 43 -4 23 -12 48 -17 55 -6 6 -8 12
-4 12 4 0 0 12 -8 28 -8 15 -17 57 -20 92 -3 36 -10 92 -15 125 -5 34 -5 61 0
63 5 2 6 22 3 45 l-7 42 27 -28 c14 -15 26 -25 26 -21z"/>
<path d="M2333 2639 c4 -13 7 -55 8 -94 1 -62 2 -66 10 -35 11 42 2 137 -13
146 -8 5 -9 -1 -5 -17z"/>
<path d="M2308 2441 c-19 -40 -49 -76 -70 -84 -7 -2 -10 -7 -7 -11 8 -8 70 50
94 87 11 16 14 32 9 37 -5 5 -16 -7 -26 -29z"/>
<path d="M2135 2320 c-18 -8 -17 -9 8 -9 16 -1 26 3 22 9 -3 6 -7 10 -8 9 -1
0 -11 -4 -22 -9z"/>
<path d="M2611 1800 c56 -95 124 -251 144 -325 4 -16 9 -25 12 -19 11 31 -110
308 -162 369 -22 26 -21 22 6 -25z"/>
<path d="M2776 1410 c22 -153 26 -209 21 -329 -3 -75 -9 -149 -13 -166 -5 -25
-4 -28 7 -17 22 20 18 417 -4 492 -10 33 -14 41 -11 20z"/>
</g>
</svg>
